<?xml version="1.0" encoding="utf-8"?>
<svg version="1.1" xmlns:xlink="http://www.w3.org/1999/xlink" width="21px" height="11px" xmlns="http://www.w3.org/2000/svg">
  <g transform="matrix(1 0 0 1 239 -760 )">
    <path d="M 20.6103515625 0.362847222222223  C 20.8701171875 0.604745370370369  21 0.891203703703701  21 1.22222222222222  C 21 1.55324074074074  20.8701171875 1.83969907407407  20.6103515625 2.08159722222222  L 11.4228515625 10.6371527777778  C 11.1630859375 10.8790509259259  10.85546875 11  10.5 11  C 10.14453125 11  9.8369140625 10.8790509259259  9.5771484375 10.6371527777778  L 0.3896484375 2.08159722222222  C 0.1298828125 1.83969907407407  0 1.55324074074074  0 1.22222222222222  C 0 0.891203703703701  0.1298828125 0.604745370370369  0.3896484375 0.362847222222223  C 0.6494140625 0.120949074074073  0.95703125 0  1.3125 0  L 19.6875 0  C 20.04296875 0  20.3505859375 0.120949074074073  20.6103515625 0.362847222222223  Z " fill-rule="nonzero" fill="#ffffff" stroke="none" transform="matrix(1 0 0 1 -239 760 )" />
  </g>
</svg>